<svg width="22" height="22" viewBox="0 0 22 22" fill="none" xmlns="http://www.w3.org/2000/svg">
<path d="M1 3C1 1.89543 1.89543 1 3 1H7C8.10457 1 9 1.89543 9 3V7C9 8.10457 8.10457 9 7 9H3C1.89543 9 1 8.10457 1 7V3Z" stroke="#A49E9E" stroke-width="1.5" stroke-linejoin="round"/>
<path d="M13 3C13 1.89543 13.8954 1 15 1H19C20.1046 1 21 1.89543 21 3V7C21 8.10457 20.1046 9 19 9H15C13.8954 9 13 8.10457 13 7V3Z" stroke="#A49E9E" stroke-width="1.5" stroke-linejoin="round"/>
<path d="M1 15C1 13.8954 1.89543 13 3 13H7C8.10457 13 9 13.8954 9 15V19C9 20.1046 8.10457 21 7 21H3C1.89543 21 1 20.1046 1 19V15Z" stroke="#A49E9E" stroke-width="1.5" stroke-linejoin="round"/>
<path d="M13 15C13 13.8954 13.8954 13 15 13H19C20.1046 13 21 13.8954 21 15V19C21 20.1046 20.1046 21 19 21H15C13.8954 21 13 20.1046 13 19V15Z" stroke="#A49E9E" stroke-width="1.5" stroke-linejoin="round"/>
</svg>
