<svg width="25" height="24" viewBox="0 0 25 24" fill="none" xmlns="http://www.w3.org/2000/svg">
<path d="M24.4885 12.2247C24.4885 11.2414 24.4069 10.5239 24.2301 9.77979H12.739V14.2178H19.484C19.3481 15.3207 18.6138 16.9816 16.9819 18.0977L16.959 18.2463L20.5923 20.9965L20.844 21.021C23.1558 18.9349 24.4885 15.8654 24.4885 12.2247Z" fill="#4285F4"/>
<path d="M12.739 23.9173C16.0435 23.9173 18.8177 22.8543 20.844 21.0206L16.9819 18.0973C15.9484 18.8016 14.5612 19.2932 12.739 19.2932C9.50248 19.2932 6.75551 17.2071 5.77629 14.3237L5.63276 14.3356L1.85483 17.1925L1.80542 17.3267C3.81804 21.2332 7.95214 23.9173 12.739 23.9173Z" fill="#34A853"/>
<path d="M5.77634 14.3238C5.51797 13.5797 5.36844 12.7824 5.36844 11.9586C5.36844 11.1347 5.51797 10.3375 5.76275 9.59342L5.75591 9.43494L1.93062 6.53223L1.80547 6.59039C0.975969 8.21149 0.5 10.0319 0.5 11.9586C0.5 13.8853 0.975969 15.7056 1.80547 17.3267L5.77634 14.3238Z" fill="#FBBC05"/>
<path d="M12.739 4.62403C15.0372 4.62403 16.5875 5.59402 17.4714 6.40461L20.9255 3.10928C18.8042 1.1826 16.0435 0 12.739 0C7.95214 0 3.81804 2.68406 1.80542 6.59056L5.7627 9.59359C6.75551 6.7102 9.50248 4.62403 12.739 4.62403Z" fill="#EB4335"/>
</svg>
