<svg width="24" height="24" viewBox="0 0 24 24" fill="none" xmlns="http://www.w3.org/2000/svg">
<path d="M21.3405 18.9266L21.3432 18.929C21.361 18.9446 21.3752 18.9638 21.385 18.9854L21.8404 18.7789L21.385 18.9854C21.3948 19.0069 21.3998 19.0303 21.3999 19.054V19.4483L20.8673 18.9337C20.2801 18.3666 19.7627 17.7315 19.3258 17.042C18.7242 15.9084 18.3721 14.6592 18.2932 13.3782V10.1083C18.3207 9.26284 18.1783 8.42043 17.8745 7.6309C17.5696 6.83869 17.1085 6.11591 16.5185 5.50563C15.9285 4.89534 15.2218 4.41002 14.4403 4.07856C13.6589 3.7471 12.8187 3.57629 11.9699 3.57629C11.121 3.57629 10.2809 3.7471 9.49942 4.07856C8.71796 4.41002 8.0112 4.89534 7.42122 5.50563C6.83123 6.11591 6.37009 6.83869 6.06526 7.6309C5.76145 8.42043 5.61908 9.26284 5.64654 10.1083V13.3782C5.56769 14.6591 5.21559 15.9084 4.61392 17.042C4.17705 17.7315 3.6596 18.3666 3.07248 18.9337L2.5332 19.4547V19.0538C2.53326 19.0302 2.53833 19.0069 2.54807 18.9854C2.55784 18.9638 2.57209 18.9446 2.58987 18.929L2.58991 18.929L2.59587 18.9236C3.26233 18.3188 3.84497 17.6277 4.32831 16.8686L4.34097 16.8487L4.3517 16.8277C4.89254 15.7701 5.21669 14.6151 5.30515 13.4306L5.30654 13.412V13.3934L5.30654 10.1L5.30654 10.099C5.30327 8.47703 5.88792 6.90882 6.9522 5.68483C8.01648 4.46085 9.48828 3.66404 11.095 3.44197L11.5265 3.38233V2.94668V2.07335C11.5265 1.96992 11.5676 1.87072 11.6408 1.79758C11.7139 1.72444 11.8131 1.68335 11.9165 1.68335C12.02 1.68335 12.1192 1.72444 12.1923 1.79758C12.2654 1.87072 12.3065 1.96992 12.3065 2.07335V2.93335V3.37353L12.7432 3.42932C14.3644 3.63645 15.8542 4.42848 16.9327 5.65658C18.0111 6.88469 18.604 8.46435 18.5999 10.0988V10.1V13.3934V13.412L18.6013 13.4306C18.6897 14.6151 19.0139 15.7701 19.5547 16.8277L19.5662 16.8502L19.58 16.8715C20.072 17.6324 20.6641 18.3236 21.3405 18.9266ZM20.5199 19.7934H21.3999V19.96C21.3999 20.0042 21.3823 20.0466 21.3511 20.0779C21.3198 20.1091 21.2774 20.1267 21.2332 20.1267H2.69987C2.65567 20.1267 2.61328 20.1091 2.58202 20.0779C2.55076 20.0466 2.5332 20.0042 2.5332 19.96V19.7934H3.41987H20.5199Z" fill="#A49E9E" stroke="#A49E9E"/>
<path d="M12 22.8533C12.42 22.8436 12.823 22.6857 13.1378 22.4075C13.4525 22.1294 13.6588 21.7488 13.72 21.3333H10.2134C10.2764 21.7601 10.4923 22.1496 10.8209 22.4292C11.1496 22.7088 11.5686 22.8595 12 22.8533Z" fill="#A49E9E"/>
</svg>
