<svg width="24" height="24" viewBox="0 0 24 24" fill="none" xmlns="http://www.w3.org/2000/svg">
<path d="M21.3407 18.9266L21.3435 18.929C21.3612 18.9446 21.3755 18.9638 21.3852 18.9854L21.8406 18.7789L21.3852 18.9854C21.395 19.0069 21.4001 19.0303 21.4001 19.054V19.4483L20.8675 18.9337C20.2804 18.3666 19.7629 17.7315 19.3261 17.042C18.7244 15.9084 18.3723 14.6592 18.2934 13.3782V10.1083C18.3209 9.26284 18.1785 8.42043 17.8747 7.6309C17.5699 6.83869 17.1088 6.11591 16.5188 5.50563C15.9288 4.89534 15.222 4.41002 14.4406 4.07856C13.6591 3.7471 12.819 3.57629 11.9701 3.57629C11.1213 3.57629 10.2811 3.7471 9.49966 4.07856C8.71821 4.41002 8.01145 4.89534 7.42146 5.50563C6.83148 6.11591 6.37034 6.83869 6.0655 7.6309C5.76169 8.42043 5.61933 9.26284 5.64678 10.1083V13.3782C5.56793 14.6591 5.21584 15.9084 4.61417 17.042C4.1773 17.7315 3.65984 18.3666 3.07272 18.9337L2.53345 19.4547V19.0538C2.53351 19.0302 2.53857 19.0069 2.54832 18.9854C2.55809 18.9638 2.57234 18.9446 2.59011 18.929L2.59016 18.929L2.59612 18.9236C3.26258 18.3188 3.84521 17.6277 4.32855 16.8686L4.34121 16.8487L4.35195 16.8277C4.89278 15.7701 5.21694 14.6151 5.30539 13.4306L5.30678 13.412V13.3934L5.30678 10.1L5.30678 10.099C5.30351 8.47703 5.88816 6.90882 6.95244 5.68483C8.01673 4.46085 9.48852 3.66404 11.0952 3.44197L11.5268 3.38233V2.94668V2.07335C11.5268 1.96992 11.5679 1.87072 11.641 1.79758C11.7141 1.72444 11.8133 1.68335 11.9168 1.68335C12.0202 1.68335 12.1194 1.72444 12.1926 1.79758C12.2657 1.87072 12.3068 1.96992 12.3068 2.07335V2.93335V3.37353L12.7434 3.42932C14.3647 3.63645 15.8545 4.42848 16.9329 5.65658C18.0114 6.88469 18.6042 8.46435 18.6001 10.0988V10.1V13.3934V13.412L18.6015 13.4306C18.69 14.6151 19.0141 15.7701 19.5549 16.8277L19.5665 16.8502L19.5802 16.8715C20.0722 17.6324 20.6644 18.3236 21.3407 18.9266ZM20.5201 19.7934H21.4001V19.96C21.4001 20.0042 21.3826 20.0466 21.3513 20.0779C21.32 20.1091 21.2777 20.1267 21.2334 20.1267H2.70011C2.65591 20.1267 2.61352 20.1091 2.58226 20.0779C2.55101 20.0466 2.53345 20.0042 2.53345 19.96V19.7934H3.42011H20.5201Z" fill="#0A9C7D" stroke="#0A9C7D"/>
<path d="M12 22.8533C12.42 22.8436 12.823 22.6857 13.1378 22.4075C13.4525 22.1294 13.6588 21.7488 13.72 21.3333H10.2134C10.2764 21.7601 10.4923 22.1496 10.8209 22.4292C11.1496 22.7088 11.5686 22.8595 12 22.8533Z" fill="#0A9C7D"/>
</svg>
