<svg width="32" height="34" viewBox="0 0 32 34" fill="none" xmlns="http://www.w3.org/2000/svg">
<path d="M16.0002 11.6669V19.1336H21.3335M12.8002 2.06689H19.2002M16.0002 6.33356C12.6054 6.33356 9.34969 7.68213 6.94923 10.0826C4.54876 12.4831 3.2002 15.7388 3.2002 19.1336C3.2002 22.5283 4.54876 25.7841 6.94923 28.1845C9.34969 30.585 12.6054 31.9336 16.0002 31.9336C19.395 31.9336 22.6507 30.585 25.0512 28.1845C27.4516 25.7841 28.8002 22.5283 28.8002 19.1336C28.8002 15.7388 27.4516 12.4831 25.0512 10.0826C22.6507 7.68213 19.395 6.33356 16.0002 6.33356V6.33356Z" stroke="#333333" stroke-width="4"/>
</svg>
